<svg width="16" height="16" viewBox="0 0 16 16" fill="none" xmlns="http://www.w3.org/2000/svg">
<rect width="16" height="16" rx="4" fill="#FFF8EA"/>
<rect x="0.75" y="0.75" width="14.5" height="14.5" rx="3.25" stroke="#010203" stroke-opacity="0.95" stroke-width="1.5"/>
<path d="M11.6973 3.84961C11.6973 4.26758 11.7148 4.67969 11.75 5.08594C11.7852 5.49219 11.8398 5.89258 11.9141 6.28711L11.0996 6.44531C10.9863 5.875 10.7246 5.43555 10.3145 5.12695C9.9043 4.81445 9.38086 4.6582 8.74414 4.6582C7.79883 4.6582 7.08203 4.92188 6.59375 5.44922C6.10938 5.97266 5.86719 6.74414 5.86719 7.76367C5.86719 8.75977 6.10156 9.54883 6.57031 10.1309C7.04297 10.7129 7.67969 11.0039 8.48047 11.0039C8.65625 11.0039 8.83594 10.9863 9.01953 10.9512C9.20703 10.9121 9.4082 10.8535 9.62305 10.7754V9.84961C9.62305 9.27148 9.56445 8.9043 9.44727 8.74805C9.33008 8.58789 9.10352 8.50781 8.76758 8.50781C8.76758 8.50781 8.72266 8.50977 8.63281 8.51367C8.54688 8.51758 8.46094 8.51953 8.375 8.51953V7.77539C8.87109 7.80664 9.27148 7.82812 9.57617 7.83984C9.88477 7.85156 10.1602 7.85742 10.4023 7.85742C10.707 7.85742 11.0312 7.85352 11.375 7.8457C11.7227 7.83398 12.1973 7.81445 12.7988 7.78711V8.51953H12.6348C12.3301 8.51953 12.125 8.58594 12.0195 8.71875C11.918 8.85156 11.8672 9.16211 11.8672 9.65039V9.94922L11.8789 10.4414C11.8789 10.6719 11.8809 10.8945 11.8848 11.1094C11.8926 11.3242 11.9023 11.5273 11.9141 11.7188C11.1367 11.8945 10.4277 12.0273 9.78711 12.1172C9.14648 12.207 8.59961 12.252 8.14648 12.252C6.64258 12.252 5.43555 11.8594 4.52539 11.0742C3.61914 10.2891 3.16602 9.25 3.16602 7.95703C3.16602 6.58203 3.66016 5.48047 4.64844 4.65234C5.63672 3.82422 6.95508 3.41016 8.60352 3.41016C9.14258 3.41016 9.66602 3.44727 10.1738 3.52148C10.6816 3.5918 11.1895 3.70117 11.6973 3.84961Z" fill="#010203" fill-opacity="0.95"/>
</svg>
